<?xml version="1.0" encoding="utf-8"?>
<svg version="1.2" baseProfile="tiny-ps" xmlns="http://www.w3.org/2000/svg" width="400px" height="400px" viewBox="0 0 400 400" preserveAspectRatio="xMidYMid meet">
 <g fill="#fffefe">
  <path d="M0 200 l0 -200 200 0 200 0 0 200 0 200 -200 0 -200 0 0 -200z m141.99 126.95 c22.89 -1.91 41.80 -7.27 61.45 -17.38 4.34 -2.27 10.16 -5.47 12.89 -7.11 l4.96 -3.05 52.73 -0.20 52.73 -0.20 2.15 -1.02 c3.09 -1.45 4.49 -2.81 5.90 -5.66 1.09 -2.23 1.21 -2.77 1.05 -4.96 -0.35 -4.26 -2.38 -7.27 -6.33 -9.38 l-1.60 -0.86 -37.77 -0.12 -37.81 -0.08 0 -1.37 c0 -1.09 0.59 -2.15 3.24 -5.55 5.98 -7.73 10.98 -16.02 15.66 -26.02 l2.70 -5.74 3.87 0 c11.95 0 22.38 -6.02 28.59 -16.41 l1.88 -3.20 2.23 0.16 c1.21 0.08 5 0.66 8.44 1.25 6.09 1.09 6.33 1.09 7.70 0.47 2.07 -0.98 2.66 -2.19 3.48 -6.84 2.42 -14.22 1.33 -28.16 -3.24 -41.64 -2.30 -6.84 -7.66 -17.07 -11.99 -23.01 -7.07 -9.69 -17.11 -18.59 -27.58 -24.41 -10 -5.55 -17.77 -8.09 -36.72 -11.95 -17.23 -3.48 -25.74 -6.09 -31.80 -9.65 -3.16 -1.91 -7.27 -5.90 -8.44 -8.28 -1.99 -4.06 -2.54 -9.10 -1.68 -15.47 0.43 -3.28 0.39 -3.44 -0.51 -5.08 -1.25 -2.23 -3.75 -3.63 -5.43 -3.09 -1.76 0.63 -3.79 3.16 -4.53 5.66 -1.33 4.61 0.12 8.71 4.96 13.95 3.44 3.75 5.82 7.85 5.82 10.08 l0 1.64 -1.80 -0.23 c-2.30 -0.23 -15.12 -6.52 -20.08 -9.84 -8.36 -5.59 -12.97 -11.45 -14.88 -18.87 -0.86 -3.44 -1.02 -10.74 -0.31 -15.51 0.59 -3.98 0.12 -5.66 -2.07 -7.23 -1.99 -1.48 -3.28 -1.48 -5.27 -0.04 -2.77 1.99 -3.87 6.33 -3.52 14.02 0.39 9.18 3.01 15.12 10 22.50 2.54 2.66 12.27 11.41 15 13.48 1.52 1.13 1.84 1.60 1.84 2.62 0 1.25 -0.08 1.29 -2.23 1.72 -11.29 2.23 -23.91 7.34 -33.01 13.40 -12.42 8.32 -23.28 20.98 -29.84 34.84 -4.53 9.61 -6.91 18.20 -8.75 31.45 -0.47 3.32 -1.84 12.30 -3.13 19.92 -3.28 19.92 -7.93 48.59 -9.77 60.16 -0.86 5.47 -1.68 10.43 -1.80 11.02 l-0.20 1.05 -19.80 0.12 c-19.80 0.12 -19.80 0.12 -21.48 1.02 -4.10 2.19 -6.56 6.52 -6.21 10.78 0.27 2.85 2.19 6.13 4.65 7.93 3.16 2.30 4.61 2.46 21.88 2.46 l15.55 0 0 1.68 c0 0.90 -0.70 5.43 -1.52 10.04 -1.33 7.34 -1.48 8.52 -1.02 9.57 0.63 1.52 1.99 2.73 3.71 3.24 2.30 0.70 16.91 2.66 25.20 3.32 3.71 0.31 17.58 0.23 21.88 -0.12z"/>
  <path d="M191.33 264.18 c-1.41 -0.16 -1.48 -0.23 -1.45 -1.60 0 -0.78 0.39 -2.85 0.86 -4.57 l0.86 -3.13 6.45 0.12 c5.20 0.12 7.34 -0.04 11.05 -0.66 6.80 -1.21 6.21 -1.41 7.46 2.66 0.59 1.91 1.02 3.98 0.94 4.61 -0.12 1.05 -0.27 1.13 -3.44 1.80 -2.54 0.59 -5.39 0.78 -12.30 0.86 -4.92 0.04 -9.65 0.04 -10.43 -0.08z"/>
  <path d="M172.46 259.61 c-5.90 -2.15 -13.79 -6.52 -16.88 -9.34 -1.52 -1.37 -1.17 -2.77 1.29 -5.59 2.89 -3.28 3.55 -3.28 8.01 -0.27 3.55 2.38 8.20 4.69 12.85 6.37 3.48 1.29 3.48 1.29 2.42 6.45 l-0.70 3.52 -1.72 0.08 c-1.21 0.08 -2.89 -0.31 -5.27 -1.21z"/>
  <path d="M227.42 257.54 c-0.86 -2.19 -1.64 -5.35 -1.64 -6.60 0 -1.21 0.20 -1.37 3.83 -3.28 10.47 -5.63 18.32 -12.70 24.88 -22.46 6.17 -9.18 9.49 -18.75 10.74 -30.90 1.52 -14.69 -4.38 -33.20 -14.49 -45.66 -1.64 -1.99 -1.91 -2.58 -1.91 -4.02 0 -1.48 0.23 -1.91 1.99 -3.83 1.76 -1.84 2.23 -2.11 3.52 -2.11 1.33 0 1.68 0.23 3.67 2.66 6.91 8.24 12.50 19.49 15.04 30.31 2.70 11.29 2.62 25.35 -0.20 36.88 -5.04 20.70 -19.61 38.87 -38.59 48.16 -4.61 2.27 -6.21 2.46 -6.84 0.86z"/>
  <path d="M141.80 237.42 c-7.54 -8.91 -13.44 -21.60 -15.63 -33.52 -1.05 -5.78 -1.45 -16.56 -0.82 -22.42 2.50 -22.97 14.61 -42.77 33.67 -55.20 4.73 -3.05 9.65 -5.35 11.64 -5.35 l1.72 -0.04 0.90 2.70 c0.51 1.52 0.94 3.48 0.94 4.38 0 1.48 -0.12 1.68 -1.25 2.15 -5 1.95 -12.54 7.19 -18.01 12.42 -12.85 12.34 -20.27 29.53 -20.35 47.11 -0.04 14.69 5.08 28.95 14.65 40.70 3.05 3.71 3.09 4.65 0.31 7.70 -1.84 2.03 -2.11 2.19 -3.71 2.19 -1.60 0 -1.80 -0.12 -4.06 -2.81z"/>
  <path d="M194.92 203.55 c-3.52 -1.13 -6.52 -3.79 -8.20 -7.27 -0.90 -1.76 -0.98 -2.42 -0.98 -6.84 0 -4.80 0 -4.92 1.33 -7.34 1.48 -2.73 3.48 -4.65 6.25 -6.02 1.60 -0.78 2.38 -0.90 6.68 -0.90 4.30 0 5.08 0.12 6.68 0.90 2.89 1.45 4.88 3.40 6.25 6.13 1.05 2.15 1.29 3.13 1.45 6.17 0.35 6.95 -2.03 11.56 -7.46 14.41 -1.41 0.74 -2.34 0.90 -6.33 0.98 -2.58 0.04 -5.12 -0.04 -5.66 -0.23z"/>
  <path d="M235.74 134.92 c-2.70 -1.88 -8.83 -5 -12.97 -6.56 -2.27 -0.90 -3.48 -1.56 -3.59 -2.03 -0.12 -0.66 0.47 -4.18 1.17 -6.88 0.35 -1.37 0.51 -1.48 1.76 -1.48 3.09 0 13.44 4.65 19.96 8.98 3.05 2.03 3.24 2.23 3.24 3.52 0 1.09 -0.43 1.84 -1.99 3.63 -1.88 2.11 -2.07 2.23 -3.79 2.19 -1.45 0 -2.27 -0.31 -3.79 -1.37z"/>
  <path d="M183.67 122.50 c-0.47 -1.60 -0.86 -3.59 -0.86 -4.45 l0 -1.56 2.03 -0.43 c5.70 -1.25 16.17 -1.88 21.60 -1.33 l3.13 0.31 0.12 1.56 c0.12 1.37 -0.35 4.92 -0.94 6.88 -0.16 0.55 -1.09 0.63 -7.70 0.63 -5.47 0 -8.32 0.16 -10.63 0.63 -1.72 0.39 -3.75 0.66 -4.53 0.66 l-1.41 0 -0.82 -2.89z"/>
 </g>
 <g fill="#50bffb">
  <path d="M189.80 243.75 c-10.47 -1.84 -20.39 -6.91 -28.05 -14.26 -4.69 -4.53 -8.09 -9.10 -10.78 -14.45 -4.22 -8.48 -5.66 -14.92 -5.66 -25.16 0 -7.46 0.63 -11.95 2.38 -17.54 3.13 -9.80 8.75 -18.40 16.17 -24.65 7.70 -6.56 16.56 -10.70 26.17 -12.34 4.57 -0.78 14.88 -0.90 19.14 -0.20 4.38 0.70 10.63 2.66 14.65 4.53 16.21 7.66 27.19 22.15 30.27 39.96 0.78 4.49 0.78 15.23 -0.04 20 -3.87 22.73 -21.64 40.27 -44.84 44.30 -4.80 0.82 -14.10 0.74 -19.41 -0.20z m15.08 -29.34 c7.34 -1.80 13.91 -6.80 17.30 -13.20 4.18 -7.81 4.18 -15.20 0 -23.20 -4.92 -9.49 -16.76 -15.47 -26.33 -13.36 -8.83 1.91 -16.13 7.93 -19.30 15.82 -2.19 5.47 -2.50 9.45 -1.17 14.61 3.40 13.28 17.19 22.34 29.49 19.34z"/>
 </g>
 <g fill="#fcca1e">
  <path d="M313.87 208.52 c-1.91 -0.43 -9.10 -1.99 -15.98 -3.44 -6.84 -1.48 -12.54 -2.77 -12.62 -2.89 -0.12 -0.08 0.04 -2.50 0.31 -5.39 1.13 -12.34 -0.90 -25.16 -6.13 -38.52 -3.79 -9.77 -9.06 -18.16 -17.03 -27.15 -1.76 -1.91 -2.27 -2.81 -2.27 -3.75 0 -1.17 0.08 -1.21 1.60 -1.21 2.07 0 6.84 1.21 11.17 2.89 25.90 9.88 43.79 32.66 47.19 60.08 0.59 4.88 0.74 15.66 0.27 18.48 -0.27 1.45 -0.39 1.56 -1.64 1.64 -0.74 0.04 -2.93 -0.31 -4.88 -0.74z"/>
 </g>
 <g fill="#f4a921">
  <path d="M278.91 226.17 c0 -0.86 0.86 -4.18 1.95 -7.34 1.84 -5.47 1.99 -5.74 3.01 -5.82 0.63 -0.08 3.63 0.47 6.76 1.17 l5.66 1.25 0.12 1.76 c0.12 1.68 0 1.91 -1.99 4.10 -1.17 1.29 -3.09 2.93 -4.26 3.59 -2.27 1.37 -7.34 2.85 -9.77 2.85 -1.48 0 -1.48 0 -1.48 -1.56z"/>
 </g>
 <g fill="#8f51a5">
  <path d="M109.30 315.23 c-1.64 -0.16 -3.79 -0.43 -4.77 -0.55 -1.80 -0.27 -1.80 -0.27 -1.80 -1.88 0 -0.86 0.27 -3.09 0.59 -4.96 0.90 -5.20 2.73 -16.68 5.47 -34.41 1.37 -8.91 3.32 -21.05 4.26 -26.95 0.98 -5.90 2.19 -13.71 2.73 -17.38 0.59 -3.63 1.09 -7.23 1.21 -7.93 0.20 -1.09 0.39 -1.25 1.48 -1.25 1.25 0 1.33 0.12 3.87 5.35 3.01 6.29 5.90 10.90 10.12 16.33 3.32 4.30 10.78 11.88 14.80 15.08 7.03 5.63 16.02 10.59 24.34 13.44 l4.18 1.45 0 1.88 c0 2.46 -1.80 7.62 -4.69 13.48 -8.24 16.56 -22.77 25.94 -43.83 28.28 -4.18 0.47 -13.24 0.47 -17.97 0.04z"/>
 </g>
 <g fill="#dc191e">
  <path d="M161.33 311.88 c0 -1.45 0.16 -1.64 2.81 -3.48 3.59 -2.50 10.08 -8.91 12.97 -12.77 3.79 -5.08 6.99 -12.07 9.45 -20.59 0.16 -0.43 0.98 -0.47 4.96 -0.20 17.81 1.29 33.91 -2.07 48.87 -10.20 2.62 -1.41 5.16 -2.54 5.78 -2.54 1.02 0 1.09 0.12 1.09 1.48 0 1.25 -0.43 2.03 -2.62 4.77 -8.55 10.70 -18.48 18.59 -35.27 27.93 -13.44 7.50 -36.05 15.82 -45.78 16.88 l-2.27 0.23 0 -1.52z"/>
 </g>
 <g fill="#0e2a67">
  <path d="M118.95 328.24 c-8.32 -0.66 -22.77 -2.58 -25.31 -3.32 -1.84 -0.55 -3.67 -2.58 -4.02 -4.41 -0.16 -0.94 0.27 -4.34 1.37 -10.31 0.86 -4.92 1.60 -9.10 1.60 -9.38 0 -0.31 -4.18 -0.43 -15.55 -0.43 -17.27 0 -18.71 -0.16 -21.88 -2.46 -0.94 -0.70 -2.34 -2.27 -3.13 -3.52 -1.29 -2.07 -1.41 -2.62 -1.56 -5.66 -0.12 -2.77 0 -3.79 0.66 -5.63 0.98 -2.50 3.13 -4.92 5.59 -6.25 1.68 -0.90 1.68 -0.90 21.48 -1.02 l19.80 -0.12 0.20 -1.05 c0.12 -0.59 0.94 -5.55 1.80 -11.02 1.84 -11.56 6.48 -40.23 9.77 -60.16 1.29 -7.62 2.66 -16.60 3.13 -19.92 1.84 -13.24 4.22 -21.84 8.75 -31.45 6.56 -13.87 17.42 -26.52 29.84 -34.84 9.14 -6.05 21.72 -11.17 33.01 -13.40 1.25 -0.27 2.23 -0.51 2.15 -0.59 -0.08 -0.04 -1.17 -0.94 -2.46 -1.99 -3.63 -2.93 -11.88 -10.35 -14.30 -12.89 -7.58 -8.01 -10.16 -14.49 -10.16 -25.39 0 -5.23 0.63 -9.22 1.80 -11.48 1.60 -3.13 6.17 -4.18 9.22 -2.15 2.27 1.48 2.85 3.13 2.54 7.03 -0.98 11.99 -0.66 15.39 1.76 20.51 3.63 7.70 10.08 13.24 22.73 19.61 7.11 3.52 10.04 4.77 10.04 4.22 0 -1.05 -3.40 -6.25 -5.82 -8.87 -1.48 -1.60 -3.28 -3.98 -3.98 -5.31 -3.20 -6.05 -1.17 -15.08 3.83 -16.72 4.02 -1.33 8.32 1.95 8.32 6.37 0 0.94 -0.20 3.36 -0.43 5.39 -0.39 3.16 -0.39 4.18 0.16 6.80 0.90 4.45 2.19 6.76 5.27 9.69 6.41 5.98 14.45 8.91 36.60 13.40 6.88 1.41 14.88 3.24 17.77 4.06 21.45 6.21 39.49 19.96 50.55 38.52 5.86 9.80 9.73 20.08 11.33 30.27 1.64 10.16 1.60 20.43 -0.12 30.47 -0.78 4.61 -1.41 5.90 -3.36 6.80 -1.80 0.86 -3.79 0.78 -10.35 -0.39 -3.13 -0.55 -6.21 -1.09 -6.88 -1.21 -1.17 -0.20 -1.29 -0.08 -3.13 2.97 -6.21 10.43 -16.64 16.45 -28.59 16.45 l-3.87 0 -2.70 5.74 c-4.69 10 -9.69 18.28 -15.66 26.02 -1.76 2.30 -3.24 4.26 -3.24 4.38 0 0.08 16.99 0.23 37.81 0.27 l37.77 0.12 1.60 0.86 c4.41 2.34 6.05 5.16 6.33 10.59 0.16 3.44 0.12 3.75 -1.05 6.13 -1.41 2.81 -2.81 4.18 -5.90 5.63 l-2.15 1.02 -52.73 0.20 -52.73 0.20 -4.96 3.05 c-2.73 1.64 -8.55 4.84 -12.89 7.11 -19.65 10.12 -38.55 15.47 -61.45 17.38 -4.30 0.35 -20.47 0.43 -24.22 0.12z m7.15 -14.22 c21.05 -2.34 35.59 -11.72 43.83 -28.28 2.27 -4.61 4.69 -10.94 4.69 -12.30 0 -0.51 -0.94 -1.02 -4.18 -2.15 -8.32 -2.85 -17.34 -7.81 -24.34 -13.44 -3.95 -3.13 -10.74 -10 -14.18 -14.30 -4.41 -5.51 -7.03 -9.65 -10.47 -16.60 -2.89 -5.74 -3.05 -5.98 -3.24 -4.69 -0.12 0.74 -0.66 4.38 -1.25 8.01 -0.55 3.67 -1.76 11.48 -2.73 17.38 -0.94 5.90 -2.89 18.05 -4.26 26.95 -2.73 17.73 -4.57 29.22 -5.47 34.41 -0.31 1.88 -0.59 3.59 -0.59 3.79 0 1.21 14.88 2.03 22.19 1.21z m43.16 -3.48 c24.34 -5.86 53.87 -21.64 68.05 -36.37 3.40 -3.55 8.79 -10 8.79 -10.55 0 -0.16 -2.07 0.86 -4.57 2.23 -8.87 4.80 -19.26 8.24 -29.61 9.73 -5.16 0.78 -14.65 0.98 -20.43 0.47 -2.85 -0.27 -3.63 -0.23 -3.75 0.20 -2.34 8.24 -5.70 15.51 -9.45 20.55 -2.89 3.87 -9.38 10.27 -12.97 12.77 -1.52 1.09 -2.81 2.07 -2.81 2.27 0 0.31 -0.04 0.35 6.76 -1.29z m43.24 -48.20 c1.84 -0.39 3.44 -0.82 3.59 -0.94 0.12 -0.16 -0.20 -1.72 -0.78 -3.52 -0.78 -2.50 -1.13 -3.16 -1.60 -3.01 -2.70 0.82 -9.10 1.41 -14.69 1.33 l-6.25 -0.08 -0.63 2.30 c-1.29 4.77 -1.33 4.38 0.31 4.57 3.52 0.43 16.80 -0.04 20.04 -0.66z m-33.55 -6.02 c0.59 -3.01 0.59 -3.28 0 -3.48 -5.86 -1.99 -10.94 -4.41 -15.31 -7.34 l-3.28 -2.19 -2.23 2.46 c-1.72 1.95 -2.11 2.58 -1.76 3.01 0.82 0.98 7.07 5 10.43 6.68 3.75 1.91 10.04 4.30 10.94 4.18 0.35 -0.04 0.78 -1.13 1.21 -3.32z m55.04 -1.25 c18.40 -9.26 32.77 -27.46 37.70 -47.73 2.77 -11.33 2.81 -23.48 0.20 -34.53 -2.62 -11.09 -8.67 -23.09 -15.70 -31.05 l-1.84 -2.11 -2.19 2.23 c-1.17 1.21 -2.15 2.42 -2.15 2.73 0 0.27 0.86 1.56 1.91 2.85 10.47 12.89 16.17 31.60 14.53 47.77 -1.25 12.30 -4.57 21.88 -10.78 31.13 -6.56 9.77 -14.41 16.84 -24.88 22.46 -2.11 1.09 -3.83 2.07 -3.83 2.11 0 0.27 1.29 4.49 1.60 5.39 0.51 1.21 0.51 1.21 5.43 -1.25z m-25.94 -12.30 c16.91 -2.93 30.98 -12.89 39.18 -27.73 2.34 -4.26 4.77 -11.33 5.66 -16.56 0.78 -4.65 0.82 -13.32 0.04 -17.66 -3.09 -17.81 -14.06 -32.30 -30.27 -39.96 -4.02 -1.91 -10.31 -3.87 -14.65 -4.53 -4.06 -0.66 -12.34 -0.55 -16.84 0.20 -9.53 1.60 -18.44 5.78 -26.13 12.34 -9.30 7.85 -15.98 19.77 -17.97 32.07 -0.78 4.80 -0.74 13.28 0.04 17.93 4.34 25.35 26.84 44.30 52.73 44.45 2.66 0.04 6.29 -0.23 8.20 -0.55z m-60.16 -5.35 c2.85 -3.05 2.85 -2.70 0.23 -5.86 -7.50 -9.22 -11.91 -19.14 -14.18 -31.95 -0.78 -4.34 -0.66 -16.02 0.20 -20.90 2.62 -14.57 9.41 -27.50 19.65 -37.34 5.47 -5.23 13.01 -10.47 18.01 -12.42 0.66 -0.31 1.25 -0.74 1.25 -0.98 0 -0.27 -0.43 -1.68 -0.94 -3.20 -1.05 -3.16 -0.90 -3.16 -5.66 -0.82 -6.68 3.24 -13.48 8.28 -19.18 14.18 -16.72 17.34 -24.10 41.33 -19.92 64.61 1.60 8.91 5.94 19.73 10.90 27.15 2.73 4.14 6.91 9.18 7.58 9.18 0.27 0 1.21 -0.74 2.07 -1.64z m137.34 -12.03 c1.25 -0.39 3.16 -1.25 4.22 -1.95 2.34 -1.48 5.94 -5.39 5.78 -6.25 -0.08 -0.39 -1.52 -0.90 -4.80 -1.64 -2.58 -0.59 -5.08 -1.09 -5.59 -1.17 -0.78 -0.12 -1.02 0.35 -2.81 5.63 -1.09 3.16 -1.95 5.94 -1.95 6.17 0 0.51 1.91 0.20 5.16 -0.78z m34.22 -23.71 c0.35 -12.85 -2.77 -26.45 -8.55 -37.15 -8.48 -15.74 -22.34 -27.89 -39.14 -34.30 -3.20 -1.25 -8.98 -2.89 -10.04 -2.89 -0.23 0 0.20 0.74 0.98 1.68 5.39 6.17 6.80 7.93 9.18 11.45 6.95 10.39 11.84 22.62 14.06 35.20 0.98 5.47 1.41 16.60 0.86 21.80 -0.20 1.95 -0.31 3.55 -0.27 3.63 0.04 0.08 5.70 1.33 12.54 2.81 6.88 1.45 14.06 3.01 15.98 3.44 1.95 0.43 3.67 0.59 3.87 0.43 0.23 -0.20 0.47 -2.93 0.55 -6.09z m-77.30 -68.75 c1.09 -1.25 1.99 -2.34 1.99 -2.46 0 -0.39 -6.60 -4.53 -10.35 -6.48 -4.10 -2.15 -11.45 -5.04 -11.84 -4.69 -0.12 0.12 -0.51 1.64 -0.90 3.40 -0.63 2.93 -0.63 3.16 -0.04 3.36 5.51 1.95 12.50 5.35 15.90 7.70 1.09 0.74 2.27 1.37 2.62 1.37 0.35 0.04 1.52 -0.98 2.62 -2.19z m-52.89 -9.34 c2.23 -0.47 5.35 -0.66 10.66 -0.70 6.33 -0.04 7.54 -0.12 7.66 -0.63 0.55 -1.88 1.05 -5.20 0.90 -5.63 -0.31 -0.82 -7.77 -1.13 -13.71 -0.63 -4.65 0.39 -10.27 1.33 -10.70 1.76 -0.23 0.23 1.52 6.45 1.84 6.45 0.12 0 1.64 -0.27 3.36 -0.63z"/>
  <path d="M196.02 216.02 c-10.86 -1.99 -19.18 -9.49 -21.80 -19.77 -0.86 -3.32 -1.05 -9.30 -0.35 -12.27 2.81 -12.73 14.65 -21.76 27.46 -20.98 14.38 0.86 25.23 12.34 25.23 26.64 0 12.38 -8.13 22.66 -20.51 25.98 -2.19 0.55 -7.85 0.82 -10.04 0.39z m9.73 -14.38 c10.08 -5.23 9.96 -19.34 -0.23 -24.38 -1.48 -0.74 -2.42 -0.90 -5.51 -0.90 -3.09 0 -4.02 0.16 -5.51 0.90 -2.77 1.37 -4.77 3.28 -6.25 6.02 -1.25 2.30 -1.33 2.70 -1.33 6.17 0 3.16 0.16 4.02 0.98 5.66 1.68 3.48 4.69 6.13 8.20 7.27 0.55 0.20 2.58 0.27 4.49 0.23 2.70 -0.12 3.91 -0.31 5.16 -0.98z"/>
 </g>
</svg>